<svg xmlns="http://www.w3.org/2000/svg" viewBox="0 0 596.45 108.11"><defs><style>.cls-1{fill:#fff;}</style></defs><g id="Layer_2" data-name="Layer 2"><g id="Layer_1-2" data-name="Layer 1"><path class="cls-1" d="M0,53.56H22.7v6.95H0v45.25H29.36V67.17H61.59V46.89H29.36V36.08h51.3V8.31H0ZM22.7,67.17V99.09h-16V67.17ZM74,15V29.41H22.7V46.89h-16V15ZM29.36,60.51V53.56H54.93v6.95Z"/><path class="cls-1" d="M192.22,39.76A32.33,32.33,0,0,0,165,8.34l-.16,0H110.88V53.56h52.74V29.41h-31.4V46.89H117.55V15h46.64a25.36,25.36,0,0,1,0,50.08H110.88v40.71h28V78.34l19.7,27.42h35.63L166.84,71.33A32.25,32.25,0,0,0,192.22,39.76ZM162,99.09,142.33,71.71h16.3l21.76,27.38Zm-5-63V46.89H138.88V36.08ZM132.22,71.71V99.09H117.55V71.71Z"/><path class="cls-1" d="M262.54,77.93,250.3,99.09H234.16L266.76,15h17.49l18.61,45.54H288.78L276.5,28.68,259.34,67.17h53.45L288.73,8.31H262.19l-37.76,97.45h29.71l12.27-21.21,18.42-.22,12.94,21.43h28.57L318,77.27Zm39,21.16-9-14.85L313.05,84l4.4,15.09Zm-25.48-53,5.57,14.46h-12Z"/><path class="cls-1" d="M476.33,99.09H462.64V1.16l-43.33,61.2L380.4,0V99.09H363.23V9.42h-6.66v96.34h30.5V61.08l31.9,47L456,60v45.74h27V9.42h-6.67ZM387.07,23.28,419,74.4l37-52.28v27L419.31,96.74,387.07,49.2Z"/><path class="cls-1" d="M596.45,36.08V8.31H513.22V53.56h22.7V65.05h-22.7v40.71h83.23V77.3H542.58V71.71h34.2V46.89h-34.2V36.08Zm-53.87,29V53.56h27.53V65.05ZM589.78,84V99.09H519.89V71.71h16V84Zm0-69V29.41H535.92V46.89h-16V15Z"/></g></g></svg>