<svg xmlns="http://www.w3.org/2000/svg" viewBox="0 0 527.45 245.43"><defs><style>.cls-1{fill:#231f20;}</style></defs><g id="Layer_2" data-name="Layer 2"><g id="Layer_1-2" data-name="Layer 1"><path class="cls-1" d="M0,53.56H22.7v6.95H0v45.25H29.36V67.17H61.59V46.89H29.36V36.08h51.3V8.31H0ZM22.7,67.17V99.09h-16V67.17ZM74,15V29.41H22.7V46.89h-16V15ZM29.36,60.51V53.56H54.93v6.95Z"/><path class="cls-1" d="M174.71,39.76A32.33,32.33,0,0,0,147.45,8.34l-.17,0H93.38V53.56h52.74V29.41H114.71V46.89H100V15h46.64a25.64,25.64,0,0,1,21.37,24.84,25.56,25.56,0,0,1-21.37,25.24H93.38v40.71h28V78.34l19.69,27.42H176.7L149.34,71.33A32.25,32.25,0,0,0,174.71,39.76ZM144.49,99.09,124.83,71.71h16.3l21.75,27.38Zm-5-63V46.89H121.38V36.08ZM114.71,71.71V99.09H100V71.71Z"/><path class="cls-1" d="M226.76,77.93,214.52,99.09H198.39L231,15h17.5l18.61,45.54H253L240.72,28.68,223.56,67.17H277L253,8.31H226.42l-37.77,97.45h29.72l12.27-21.21,18.41-.22L262,105.76h28.57l-8.31-28.49Zm39,21.16-9-14.85L277.27,84l4.41,15.09Zm-25.48-53,5.58,14.46h-12Z"/><path class="cls-1" d="M422.94,99.09H409.25V1.16l-43.33,61.2L327,0V99.09H309.84V9.42h-6.67v96.34h30.5V61.08l31.9,47,37-48.09v45.74h27V9.42h-6.66ZM333.67,23.28l31.9,51.12,37-52.28v27L365.92,96.74,333.67,49.2Z"/><path class="cls-1" d="M527.45,36.08V8.31H444.22V53.56h22.7V65.05h-22.7v40.71h83.23V77.3H473.58V71.71h34.2V46.89h-34.2V36.08Zm-53.87,29V53.56h27.53V65.05ZM520.78,84V99.09H450.89V71.71h16V84Zm0-69V29.41H466.92V46.89h-16V15Z"/><path class="cls-1" d="M331.65,151.71c-4.29-3.69-10.92-5.57-19.72-5.57h-9.22v41.57h9.22c8.8,0,15.43-1.87,19.72-5.57,4.13-3.55,6.13-8.53,6.13-15.21S335.78,155.27,331.65,151.71Z"/><path class="cls-1" d="M484.26,144.72c-6.69,0-12,2-16.32,6.2s-6.31,9.37-6.31,16,2.06,11.87,6.31,16,9.63,6.21,16.32,6.21,12-2,16.32-6.21,6.32-9.37,6.32-16-2.07-11.87-6.32-16S491,144.72,484.26,144.72Z"/><path class="cls-1" d="M0,122.94v88H527.45v-88Zm54.38,74.3c-5,3.7-11.72,5.58-19.87,5.58-8.93,0-15.9-2.21-20.71-6.57A23.63,23.63,0,0,1,6,179.11l-.22-5.21H20l.39,4.58c.3,3.57,1.49,6,3.75,7.73,2.5,1.89,6,2.84,10.4,2.84,4.72,0,8.41-.84,11-2.5a5.54,5.54,0,0,0,2.82-5.14,4.57,4.57,0,0,0-1-3.19,8,8,0,0,0-3.48-2.33,55.58,55.58,0,0,0-6.92-2l-8.32-1.84a42.71,42.71,0,0,1-8.66-2.86,18.43,18.43,0,0,1-7.64-6.52,18.86,18.86,0,0,1-3-10.75c0-5.77,2.39-10.81,7.11-15,4.52-4,10.83-6,18.73-6s14.59,2.25,19.43,6.67a23.17,23.17,0,0,1,7.66,17.23l.11,5.11H48l-.12-4.88a9.42,9.42,0,0,0-3.25-7.45c-2.31-2-5.4-2.91-9.46-2.91s-7,.78-9,2.32a5.49,5.49,0,0,0-2.43,4.81,4.36,4.36,0,0,0,1,3.11,7.61,7.61,0,0,0,3.45,2.26,69,69,0,0,0,7,2l8.32,1.92A45.46,45.46,0,0,1,52.05,164a18.3,18.3,0,0,1,7.64,6.5,18.9,18.9,0,0,1,3,10.72A19.27,19.27,0,0,1,54.38,197.24Zm96.92-51.1H130v55.51H115.63V146.14H94.35V132.21h57ZM245,172c0,9.77-2.72,17.44-8.09,22.8s-12.63,8.07-21.6,8.07-16.23-2.71-21.6-8.07-8.08-13-8.08-22.8V132.21H200v40.58c0,5.27,1.32,9.25,4,12.17s6.3,4.18,11.27,4.18,8.66-1.37,11.27-4.18,4-6.9,4-12.17V132.21H245Zm96.45,20.29c-7,6.19-16.84,9.33-29.19,9.33h-24V132.21h24c12.34,0,22.17,3.13,29.19,9.32,7.21,6.36,10.86,14.9,10.86,25.4S348.69,186,341.48,192.32Zm65.42,9.33H392.51V132.21H406.9Zm104.2-9.13c-6.88,6.89-15.91,10.38-26.84,10.38s-20-3.49-26.83-10.38a36.78,36.78,0,0,1,0-51.18c6.87-6.89,15.9-10.39,26.83-10.39s20,3.5,26.84,10.39a36.78,36.78,0,0,1,0,51.18Z"/><path class="cls-1" d="M4.6,245H0l7.71-21.4h5L20.38,245H16l-1.3-3.68H5.91Zm5.75-16h-.07l-3,8.35h6Z"/><path class="cls-1" d="M61.54,245H52.11v-21.4h9a7.65,7.65,0,0,1,5.32,1.64,5.49,5.49,0,0,1,1.8,4.24,5.13,5.13,0,0,1-.8,2.87,5,5,0,0,1-2.19,1.86,5,5,0,0,1,2.4,1.81,4.86,4.86,0,0,1,.89,2.92,5.68,5.68,0,0,1-1.81,4.45A7.64,7.64,0,0,1,61.54,245Zm-.42-17.45H56.39v4.64h4.73a3.09,3.09,0,0,0,2-.59,2.13,2.13,0,0,0,.71-1.73,2.22,2.22,0,0,0-.68-1.67A2.81,2.81,0,0,0,61.12,227.53Zm.3,8.62h-5V241h5c1.81,0,2.72-.81,2.72-2.44a2.39,2.39,0,0,0-.68-1.78A2.81,2.81,0,0,0,61.42,236.15Z"/><path class="cls-1" d="M105.73,223.58V245h-4.4v-21.4Z"/><path class="cls-1" d="M153.32,240.94v4H139.43v-21.4h4.4v17.36Z"/><path class="cls-1" d="M199,240.94v4H185.09v-21.4h4.4v17.36Z"/><path class="cls-1" d="M235.15,223.58V245h-4.4v-21.4Z"/><path class="cls-1" d="M287,226.29a11.76,11.76,0,0,1,0,16,11.68,11.68,0,0,1-16,0,11.76,11.76,0,0,1,0-16,11.68,11.68,0,0,1,16,0Zm-3.32,13a7.95,7.95,0,0,0,0-10.1,6.66,6.66,0,0,0-9.34,0,7.95,7.95,0,0,0,0,10.1,6.66,6.66,0,0,0,9.34,0Z"/><path class="cls-1" d="M327.07,230.84V245h-4.28v-21.4h4.4l9.38,14.19V223.58h4.28V245h-4.43Z"/><path class="cls-1" d="M427,240.94v4h-15.4v-21.4H427v4H416v4.49H426.5v4H416v4.79Z"/><path class="cls-1" d="M477.62,245h-5.09l-4-8.11H464.3V245h-4.4v-21.4h9.7a7.21,7.21,0,0,1,5.28,1.84,6.51,6.51,0,0,1,1.87,4.85,7.1,7.1,0,0,1-1,3.77,5.84,5.84,0,0,1-2.82,2.35Zm-6-12.83a2.52,2.52,0,0,0,.7-1.88,2.65,2.65,0,0,0-.71-1.93,2.73,2.73,0,0,0-2-.72h-5.3v5.21h5.3A2.77,2.77,0,0,0,471.65,232.15Z"/><path class="cls-1" d="M511.67,245h-4.6l7.71-21.4h5l7.69,21.4h-4.38l-1.3-3.68H513Zm5.75-16h-.08l-3,8.35h6Z"/></g></g></svg>