<svg xmlns="http://www.w3.org/2000/svg" viewBox="0 0 437.46 103.31"><g id="Layer_2" data-name="Layer 2"><g id="Layer_1-2" data-name="Layer 1"><path d="M58.06,27.34C64.1,13.46,56,0,40.9,0,26.7,0,16.64,11.44,16.42,22.46c-.31,20.66,25.22,20.88,25.22,37.09,0,9.43-8.26,17.91-18.33,17.91-9,0-15.26-5.94-15.26-13.89,0-5,2.12-10.17,5.72-13.13l-7-3.92C3.07,50.22,0,57.64,0,63.57c0,12.3,9,21.2,22.67,21.2,15.9,0,27.13-12.72,27.24-25.54.1-20.45-25.54-20.87-25.22-37.4A15.52,15.52,0,0,1,40.16,7c8.69,0,14.83,8,9.53,20.35Z"/><path d="M188.06,26.07c3.18,0,6.25-3.5,6.25-7a3.93,3.93,0,0,0-4-4.13c-3.28,0-6.35,3.28-6.35,7A4,4,0,0,0,188.06,26.07Z"/><path d="M429.83,33.06c-4.45,13.14-9.32,30.83-19.07,30.83-8.79,0-3.18-17.06,2.86-30.83h-7.73c-3.51,8.26-5.84,15.59-6.67,21.54-4.43,6.79-10.53,13.53-14,13.53-2.33,0-3.39-1.48-3.39-4.24,0-5.93,6.78-19.92,10.7-28.71-4.24.1-13.46-.32-18.54-1.49.31-1.27.53-2.64.84-3.92h-7c-2.22,11.87-6.89,24.16-13.56,32.32a14,14,0,0,0-1.55,2.23c-2.56,2.4-5,3.81-6.92,3.81-4.67,0-2.76-6.89,7.41-35.07h-7.41l-1.7,4.87c-1.48-3-5.83-5.93-10.38-5.93-11.9,0-20.86,12.58-21.57,26.23-4.47,6-9.06,9.9-12.34,9.9-5.29,0-3-8.58,7.21-35.07H299c-8.48,24.58-13.25,35-20.35,35s-5.08-12.6,4.77-35h-7.73c-4.05,9.07-6.67,16.63-8,22.73-5,7.34-10.36,12.34-14.06,12.34-5.51,0-1.59-10.49,16.32-60h-7.74c-3.28,10-6.57,19.81-10.17,29.77-1.48-3-5.83-5.93-10.49-5.93-11.92,0-20.8,12.64-21.46,26.23-4.48,6-9.06,9.9-12.34,9.9-6.25,0-5-9.54,1.7-28.82h9.75l2.22-6.25h-9.64c1.7-4.66,3.71-9.86,5.93-15.58h-7.63c-1.8,5-3.81,10.28-5.72,15.58h-5.82l-2.12,6.25h5.72a137.45,137.45,0,0,0-4.4,14.86c-5.32,8.22-11.12,14-15.09,14-7.1,0,0-17.38,6.78-35.07H181.7c-3,7.86-6,15.87-7.8,22.77-4.83,7.12-9.86,12.3-13.7,12.3-2.12,0-3.08-1.06-3.08-3.18,0-5.93,8.8-17.06,8.8-24.16,0-5.29-3.39-8.79-8.69-8.79-6,0-12,3.6-16.53,10.49,1.06-6.57-2.12-10.49-7.42-10.49-6.35,0-12.61,5-16.31,10.59l3.39-9.53h-7.21c-2.59,7.78-5.22,15.6-7.8,23.42-4.86,7-10,11.65-13.6,11.65-5.29,0-3-8.58,7.21-35.07h-8C82.43,57.64,77.66,68,70.56,68s-5.08-12.6,4.77-35H67.59c-12.71,28.5-11.44,42.17,1,42.17,5.4,0,11-4.35,14.09-10.7-1.06,6.35,2.23,10.7,7.63,10.7,3.64,0,7.32-2.09,10.65-5.19-.44,1.37-.89,2.75-1.33,4.13H107c5-17.59,13.14-35.28,23-35.28,2.22,0,3.5,1.37,3.5,3.81,0,4.66-2.12,10.7-9.86,31.47h8c4.66-15.89,12.08-35.28,22.78-35.28,2.44,0,3.6,1.27,3.6,3.7,0,6.15-8.47,15.47-8.47,23.85,0,5.4,3.39,8.79,8.9,8.79,4.84,0,9.83-3.77,14-8.69.2,5.33,2.62,8.69,8.8,8.69,5.45,0,11-4.69,15.32-10.43.2,6.34,2.89,10.43,9.79,10.43,5.14,0,10.36-4.18,14.57-9.47,1.64,5.63,5.71,9.47,11.49,9.47,6.89,0,10.28-4.13,12.19-7,.32,2.75,2,7,7.63,7h.1c5.16-.07,10.35-4.25,14.54-9.54.52,6.4,3.89,9.54,9.83,9.54,5.4,0,11-4.35,14.09-10.7-1.06,6.35,2.23,10.7,7.63,10.7,5.14,0,10.35-4.17,14.56-9.46,1.63,5.61,5.69,9.46,11.4,9.46,7,0,10.38-4.13,12.29-7,.32,2.75,2,7,7.73,7,8.26,0,16.83-11,21-20A84.14,84.14,0,0,0,372.09,40a39,39,0,0,0,10.28,1.27c-3.82,8.58-8.06,17.27-8.06,24.47,0,5.19,3.08,9.54,8.9,9.54,5.56,0,11.62-5.64,16.08-12,1,4.63,4,7.26,9.46,7.26a12.92,12.92,0,0,0,11.12-6.57l-3.49,10.49c-10.07,1.91-29.78,8.05-29.78,20.24,0,4.45,3.6,8.69,11.13,8.69,9.32,0,18.54-8.27,23.94-24s10.18-30.62,15.79-46.3ZM234.25,68c-4.45,0-6.67-4.13-6.67-8.47,0-10.07,5.61-20.66,14.3-20.66a8.45,8.45,0,0,1,7.84,5.29C245.38,59.65,240.82,68,234.25,68Zm92.28,0c-4.66,0-6.78-4.13-6.78-8.37,0-10.17,5.51-20.76,14.2-20.76a8.34,8.34,0,0,1,7.84,5.29C337.44,59.65,332.89,68,326.53,68Zm71.73,29c-3.08,0-4.24-1.7-4.24-3.61,0-6.25,13.67-11.86,20.45-12.92C409.81,92,403.13,97.06,398.26,97.06Z"/></g></g></svg>