<svg xmlns="http://www.w3.org/2000/svg" viewBox="0 0 532.12 104.54"><defs><style>.cls-1{fill:#fff;}</style></defs><g id="Layer_2" data-name="Layer 2"><g id="Layer_1-2" data-name="Layer 1"><path class="cls-1" d="M35,74.28S31,80,20.18,80C7.35,80,1,75.12,1,75.12V61.77H2.8c1.59,4.14,5,16.43,17.38,16.43,7.52,0,8.79-9.54.74-14.84L10.22,56.9C-.06,50.65-2.82,42.06,3,34.44c0,0,4-5.3,14.62-5.3,12.19,0,17.49,3.18,17.49,3.18V44.18H33.31c-1.37-3.7-4.76-13.24-15.68-13.24-6.88,0-9.85,8.16-.63,14L27.7,51.6C37.13,57.43,40.31,66.65,35,74.28Z"/><path class="cls-1" d="M100.27,75.33v1.81L84.59,79.89c-2.86.43-3-2-3-2V68.55C79.08,74.59,70.29,80,63.72,80c-8.37,0-13.35-3.5-13.35-16.21V41.11c0-6.36.21-7.31-5.94-8.16v-1.8l19.08-2V63.47c0,5.93,2.75,8.79,8.9,8.79,3,0,7-2.65,9.22-6.88V41.43c0-6.46.42-7.84-5-8.48v-1.8l18.22-2V69.3C94.87,74.38,95.82,74.81,100.27,75.33Z"/><path class="cls-1" d="M184.72,79H162.89v-1.8c4-1.16,4.24-5.72,4.24-11.12V45.56c0-5.93-3-8.79-7.74-8.79-3.92,0-8.37,4.77-8.37,9V66.12c0,5.82.53,10.17,4.35,11.12V79H133.54v-1.8c4-1.16,4.24-5.72,4.24-11.12V45.56c0-5.93-2.86-8.79-7.63-8.79-3.92,0-8.48,4.87-8.48,8.69V66.33c0,5.83.64,9.85,4.35,10.91V79H104.29v-1.8c4-1.16,4.14-5.51,4.14-10.91V43.12c0-3.7-1-5.61-5.3-7.94v-1.8l18.54-4.24V40.05c2.86-6.14,9.33-10.91,16-10.91,7.42,0,12,3.39,13.25,11.23,2.22-6.46,9.43-11.23,16.1-11.23,8.27,0,13.35,3.28,13.35,16.1V66.12c0,5.82.53,10.17,4.35,11.12Z"/><path class="cls-1" d="M212.15,77.24V79H190.43v-1.8c4-1.27,4.24-5.72,4.24-11.12V42.59c0-3.6-1.06-5.08-5.4-7.41v-1.8l18.54-4.24v37C207.81,72.05,208.34,76.18,212.15,77.24Zm-12-56.58a7.21,7.21,0,0,1,0-14.41,7.21,7.21,0,1,1,0,14.41Z"/><path class="cls-1" d="M251,68.77l1.59,1C250.51,74.7,244,80,237,80c-8.38,0-13.36-3.39-13.36-16.21V31.89H218.3l-.32-1.8h5.61V15.89l13.25-2.22V30.09h12.61l-.43,1.8H236.84V63.47c0,5.93,2.54,9,7.84,9A7.8,7.8,0,0,0,251,68.77Z"/><path class="cls-1" d="M314.5,75.76v1.8l-15.57,2.33c-3,.43-3-1.91-3-1.91V71.42C292.57,77.67,284.73,80,279.75,80c-12,0-22.57-9.43-22.57-26.17,0-17.06,11.23-24.69,26.07-24.69A25,25,0,0,1,296,32.32V12.08c0-3.71-1.06-4.77-5.4-6.36V3.92L309.1,0V68.77C309.1,74,310.16,75.23,314.5,75.76ZM296,48.63c0-13.35-6.57-17.69-12.61-17.69-7.73,0-11.12,5.83-11.12,21.93,0,17.06,3.49,23.42,12.07,23.42,7.21,0,11.66-5.3,11.66-12.72Z"/><path class="cls-1" d="M373.73,75.33v1.81l-15.68,2.75c-2.86.43-3-2-3-2V68.55c-2.54,6-11.34,11.45-17.91,11.45-8.37,0-13.35-3.5-13.35-16.21V41.11c0-6.36.21-7.31-5.93-8.16v-1.8l19.07-2V63.47c0,5.93,2.75,8.79,8.9,8.79,3,0,7-2.65,9.22-6.88V41.43c0-6.46.42-7.84-5-8.48v-1.8l18.22-2V69.3C368.32,74.38,369.28,74.81,373.73,75.33Z"/><path class="cls-1" d="M428.61,71.73l1.8.74c-.85,3.4-5.72,7.53-12.4,7.53,0,0-9.43,0-10.59-8.58-1.59,4.66-7.84,8.58-15.37,8.58,0,0-12.18,0-12.18-10.81,0-11.55,8.9-12.61,27.44-17.27V45.35c0-11-6.15-16.53-13.46-12.72-3.39,1.7-3.81,3.5-3.07,3.61a5.45,5.45,0,0,1,3.92,2.33,6,6,0,0,1-1.59,8.37,6.1,6.1,0,0,1-8.37-1.59,6.26,6.26,0,0,1-.32-6.36c1.06-1.8,2.44-4.66,8.27-7.73A21,21,0,0,1,403,29.14c13.88,0,17.69,8.69,17.69,21.19V66.12s-.11,7.41,5.09,7.41C425.75,73.53,428,73.53,428.61,71.73Zm-21.3-17.9c-10.38,2.33-13.88,7.31-13.88,12.71,0,0,0,7,6.89,7,3.6,0,6-2.86,7-5.4Z"/><path class="cls-1" d="M455.83,77.24V79H433.9v-1.8c4.13-1.27,4.24-5.61,4.24-11.12V42.59c0-3.6-.95-5.19-5.3-7.41v-1.8l18.65-4.24v37C451.49,72.05,452,76.18,455.83,77.24Zm16.75-46.19a7.93,7.93,0,0,1-10.39,12,7.07,7.07,0,0,1-2.44-5.19c0-.85-2.33-.85-5,1.59l-1.07-1.49c4.56-6,8.06-7.31,10.28-8.26A9.47,9.47,0,0,1,472.58,31.05Z"/><path class="cls-1" d="M506.27,80h-2l-20-44c-1.7-4.14-5.09-4.14-6.68-4.14v-1.8h25v1.8c-5.51,0-2.76,6.47-2.76,6.47l12.29,26.27Zm-6.15,11.12c-1.7,4.45-4.13,5-4.56,3.71a6.64,6.64,0,0,0-3.6-4.34,7.37,7.37,0,0,0-9.75,3.71,7.45,7.45,0,0,0,3.71,9.74,8.53,8.53,0,0,0,8.16-1.06c2-1.59,5.19-4.55,7.95-11.76Zm32-61v1.8c-2.23,0-7.1.21-13.88,16.53L517,46.94c1.37-3.5,4.77-15.15-5.62-15v-1.8Z"/></g></g></svg>