<svg xmlns="http://www.w3.org/2000/svg" viewBox="0 0 325.03 177.29"><defs><style>.cls-1{fill:#fff;}</style></defs><g id="Layer_2" data-name="Layer 2"><g id="Layer_1-2" data-name="Layer 1"><path class="cls-1" d="M9.66,109.88v.76H.45v-.76c1.7-.49,1.79-2.37,1.79-4.65V82.59c0-1.56-.45-2.23-2.24-2.9v-.77l7.83-1.65v28C7.83,107.69,8.05,109.48,9.66,109.88Zm14.36,0v.76h-6.3c-3.09,0-3.49-.8-6.49-5.27-1.34-2-2.51-3.76-2.51-3.76L12.93,97s6.4-6.48.58-6.3V90H24.38v.76c-.8.09-5.37.22-11.32,7.56,6.63,9.35,6.71,9.35,6.71,9.35A5.27,5.27,0,0,0,24,109.88Z"/><path class="cls-1" d="M34.9,109.88v.76H25.64v-.76c1.74-.53,1.79-2.37,1.79-4.69V95.25c0-1.52-.41-2.19-2.24-3.13v-.76l7.87-1.79v15.62C33.06,107.69,33.29,109.44,34.9,109.88ZM42,90.38a3.35,3.35,0,0,1-4.39,5.05,3,3,0,0,1-1-2.19c0-.36-1-.36-2.1.67L34,93.29a9.23,9.23,0,0,1,4.34-3.49A4,4,0,0,1,42,90.38Z"/><path class="cls-1" d="M48.54,110.87a3.78,3.78,0,1,1,3.76-3.76A3.76,3.76,0,0,1,48.54,110.87Z"/><path class="cls-1" d="M35,68s-4,5.72-14.83,5.72C7.35,73.75,1,68.87,1,68.87V55.52H2.8C4.39,59.65,7.78,72,20.18,72c7.52,0,8.79-9.54.74-14.84l-10.7-6.46C-.06,44.4-2.82,35.81,3,28.19c0,0,4-5.3,14.62-5.3,12.19,0,17.49,3.18,17.49,3.18V37.93H33.31c-1.37-3.71-4.76-13.24-15.68-13.24-6.88,0-9.85,8.16-.63,14l10.7,6.68C37.13,51.18,40.31,60.4,35,68Z"/><path class="cls-1" d="M100.27,69.08v1.81L84.59,73.64c-2.86.42-3-2-3-2V62.3c-2.55,6-11.34,11.45-17.91,11.45-8.37,0-13.35-3.5-13.35-16.21V34.86c0-6.36.21-7.31-5.94-8.16V24.9l19.08-2V57.22c0,5.93,2.75,8.79,8.9,8.79,3,0,7-2.65,9.22-6.89V35.18c0-6.47.42-7.84-5-8.48V24.9l18.22-2V63C94.87,68.13,95.82,68.55,100.27,69.08Z"/><path class="cls-1" d="M184.72,72.79H162.89V71c4-1.16,4.24-5.72,4.24-11.12V39.31c0-5.93-3-8.79-7.74-8.79-3.92,0-8.37,4.76-8.37,9V59.87c0,5.82.53,10.17,4.35,11.12v1.8H133.54V71c4-1.16,4.24-5.72,4.24-11.12V39.31c0-5.93-2.86-8.79-7.63-8.79-3.92,0-8.48,4.87-8.48,8.69V60.08c0,5.83.64,9.85,4.35,10.91v1.8H104.29V71c4-1.16,4.14-5.51,4.14-10.91V36.87c0-3.7-1-5.61-5.3-7.94V27.12l18.54-4.23V33.8c2.86-6.14,9.33-10.91,16-10.91,7.42,0,12,3.39,13.25,11.23,2.22-6.46,9.43-11.23,16.1-11.23,8.27,0,13.35,3.28,13.35,16.1V59.87c0,5.82.53,10.17,4.35,11.12Z"/><path class="cls-1" d="M212.15,71v1.8H190.43V71c4-1.27,4.24-5.72,4.24-11.12V36.34c0-3.6-1.06-5.08-5.4-7.41V27.12l18.54-4.23v37C207.81,65.8,208.34,69.93,212.15,71Zm-12-56.58a7.14,7.14,0,0,1-7.2-7.2A7.14,7.14,0,0,1,200.18,0a7.21,7.21,0,1,1,0,14.41Z"/><path class="cls-1" d="M251,62.52l1.59.95c-2.12,5-8.59,10.28-15.68,10.28-8.38,0-13.36-3.39-13.36-16.21V25.64H218.3l-.32-1.8h5.61V9.64l13.25-2.22V23.84h12.61l-.43,1.8H236.84V57.22c0,5.93,2.54,9,7.84,9A7.82,7.82,0,0,0,251,62.52Z"/><path class="cls-1" d="M107.41,148.51v1.8l-15.57,2.33c-3,.42-3-1.91-3-1.91v-6.57c-3.39,6.26-11.23,8.59-16.21,8.59-12,0-22.57-9.43-22.57-26.17,0-17.06,11.23-24.69,26.07-24.69a25,25,0,0,1,12.71,3.18V84.83c0-3.71-1.06-4.77-5.4-6.36v-1.8L102,72.75v68.77C102,146.71,103.07,148,107.41,148.51ZM88.87,121.38c0-13.35-6.57-17.69-12.61-17.69-7.73,0-11.12,5.83-11.12,21.93,0,17.06,3.49,23.42,12.08,23.42,7.2,0,11.65-5.3,11.65-12.72Z"/><path class="cls-1" d="M166.64,148.08v1.81L151,152.64c-2.86.42-3-2-3-2V141.3c-2.54,6-11.34,11.45-17.91,11.45-8.37,0-13.35-3.5-13.35-16.21V113.86c0-6.36.21-7.31-5.93-8.16v-1.8l19.07-2v34.33c0,5.93,2.75,8.79,8.9,8.79,3,0,7-2.65,9.22-6.89V114.18c0-6.47.42-7.84-5-8.48v-1.8l18.22-2V142C161.23,147.13,162.19,147.55,166.64,148.08Z"/><path class="cls-1" d="M221.52,144.48l1.8.74c-.85,3.39-5.72,7.53-12.4,7.53,0,0-9.43,0-10.59-8.59-1.59,4.67-7.84,8.59-15.37,8.59,0,0-12.18,0-12.18-10.81,0-11.55,8.9-12.61,27.44-17.27V118.1c0-11-6.14-16.53-13.46-12.72-3.39,1.7-3.81,3.5-3.07,3.61a5.45,5.45,0,0,1,3.92,2.33,6,6,0,0,1-1.59,8.37,6.1,6.1,0,0,1-8.37-1.59,6.26,6.26,0,0,1-.32-6.36c1.06-1.8,2.44-4.66,8.27-7.73a21,21,0,0,1,10.28-2.12c13.88,0,17.69,8.69,17.69,21.19v15.79s-.11,7.41,5.09,7.41C218.66,146.28,220.88,146.28,221.52,144.48Zm-21.3-17.9c-10.38,2.33-13.88,7.31-13.88,12.71,0,0,0,7,6.89,7,3.6,0,6-2.86,7-5.4Z"/><path class="cls-1" d="M248.74,150v1.8H226.81V150c4.13-1.27,4.24-5.61,4.24-11.12V115.34c0-3.6-1-5.19-5.3-7.41v-1.81l18.65-4.23v37C244.4,144.8,244.93,148.93,248.74,150Zm16.75-46.2a7.93,7.93,0,0,1-10.39,12,7.09,7.09,0,0,1-2.44-5.19c0-.85-2.33-.85-5,1.59l-1.07-1.49c4.56-6,8.06-7.31,10.28-8.26A9.49,9.49,0,0,1,265.49,103.79Z"/><path class="cls-1" d="M299.18,152.75h-2l-20-44c-1.7-4.13-5.09-4.13-6.68-4.13v-1.8h25v1.8c-5.51,0-2.76,6.47-2.76,6.47L305,137.38ZM293,163.87c-1.7,4.45-4.13,5-4.56,3.71a6.64,6.64,0,0,0-3.6-4.34,7.37,7.37,0,0,0-9.75,3.71,7.45,7.45,0,0,0,3.71,9.74,8.53,8.53,0,0,0,8.16-1.06c2-1.59,5.19-4.55,7.95-11.76Zm32-61v1.8c-2.23,0-7.1.21-13.88,16.53l-1.27-1.48c1.37-3.5,4.77-15.15-5.62-15v-1.8Z"/></g></g></svg>