<svg xmlns="http://www.w3.org/2000/svg" viewBox="0 0 1000 1000"><defs><style>.cls-1{fill:#ccc;}.cls-2{fill:#fff;}</style></defs><g id="Layer_2" data-name="Layer 2"><g id="Layer_1-2" data-name="Layer 1"><rect class="cls-1" width="1000" height="1000"/><path class="cls-2" d="M248.05,524s-4.39,6.23-16.18,6.23c-14,0-20.91-5.31-20.91-5.31V510.36h2c1.74,4.51,5.43,17.91,19,17.91,8.2,0,9.59-10.4.81-16.18l-11.67-7c-11.21-6.82-14.21-16.18-7.86-24.5,0,0,4.39-5.78,15.95-5.78,13.29,0,19.06,3.47,19.06,3.47v12.94h-2c-1.5-4-5.2-14.44-17.1-14.44-7.51,0-10.75,8.9-.7,15.25l11.67,7.28C250.36,505.62,253.82,515.68,248.05,524Z"/><path class="cls-2" d="M319.22,525.15v2l-17.1,3c-3.12.46-3.24-2.2-3.24-2.2V517.76c-2.77,6.58-12.36,12.47-19.53,12.47-9.12,0-14.55-3.81-14.55-17.67V487.83c0-6.93.23-8-6.47-8.9v-2l20.79-2.2v37.44c0,6.47,3,9.59,9.71,9.59,3.23,0,7.62-2.89,10.05-7.51V488.18c0-7.05.46-8.55-5.43-9.25v-2l19.87-2.2v43.8C313.32,524.11,314.36,524.57,319.22,525.15Z"/><path class="cls-2" d="M411.3,529.19H387.5v-2c4.39-1.27,4.62-6.24,4.62-12.13V492.68c0-6.47-3.24-9.59-8.44-9.59-4.27,0-9.12,5.2-9.12,9.82V515.1c0,6.35.57,11.09,4.73,12.13v2h-23.8v-2c4.39-1.27,4.62-6.24,4.62-12.13V492.68c0-6.47-3.12-9.59-8.32-9.59-4.27,0-9.24,5.32-9.24,9.48v22.76c0,6.36.69,10.74,4.74,11.9v2H323.6v-2c4.39-1.27,4.51-6,4.51-11.9V490c0-4-1-6.13-5.78-8.67v-2l20.22-4.63v11.91c3.12-6.71,10.17-11.91,17.45-11.91,8.09,0,13.05,3.7,14.44,12.25,2.43-7,10.28-12.25,17.56-12.25,9,0,14.56,3.59,14.56,17.57V515.1c0,6.35.58,11.09,4.74,12.13Z"/><path class="cls-2" d="M441.22,527.23v2H417.53v-2c4.39-1.39,4.62-6.24,4.62-12.13V489.45c0-3.93-1.15-5.55-5.89-8.09v-2l20.22-4.63V515.1C436.48,521.57,437.06,526.07,441.22,527.23Zm-13.06-61.7a7.86,7.86,0,0,1,0-15.71,7.86,7.86,0,1,1,0,15.71Z"/><path class="cls-2" d="M483.62,518l1.73,1c-2.31,5.43-9.36,11.2-17.1,11.2-9.13,0-14.56-3.69-14.56-17.67V477.78h-5.77l-.35-2h6.12V460.33l14.45-2.42v17.9h13.75l-.47,2H468.14v34.43c0,6.47,2.77,9.82,8.55,9.82A8.49,8.49,0,0,0,483.62,518Z"/><path class="cls-2" d="M552.83,525.61v2l-17,2.54c-3.23.46-3.23-2.08-3.23-2.08v-7.16c-3.7,6.81-12.25,9.35-17.68,9.35-13.06,0-24.61-10.28-24.61-28.53,0-18.61,12.25-26.93,28.42-26.93a27.46,27.46,0,0,1,13.87,3.47V456.17c0-4-1.16-5.2-5.9-6.93v-2L546.93,443v75C546.93,523.65,548.09,525,552.83,525.61ZM532.61,496c0-14.55-7.17-19.29-13.75-19.29-8.44,0-12.14,6.35-12.14,23.92,0,18.6,3.82,25.53,13.18,25.53,7.85,0,12.71-5.78,12.71-13.86Z"/><path class="cls-2" d="M617.41,525.15v2l-17.1,3c-3.12.46-3.24-2.2-3.24-2.2V517.76c-2.77,6.58-12.36,12.47-19.52,12.47-9.13,0-14.56-3.81-14.56-17.67V487.83c0-6.93.23-8-6.47-8.9v-2l20.8-2.2v37.44c0,6.47,3,9.59,9.7,9.59,3.24,0,7.63-2.89,10.05-7.51V488.18c0-7.05.47-8.55-5.43-9.25v-2l19.88-2.2v43.8C611.52,524.11,612.56,524.57,617.41,525.15Z"/><path class="cls-2" d="M677.25,521.22l2,.81c-.93,3.7-6.24,8.2-13.52,8.2,0,0-10.28,0-11.56-9.35-1.73,5.08-8.54,9.35-16.75,9.35,0,0-13.29,0-13.29-11.78,0-12.59,9.71-13.75,29.93-18.83v-7.17c0-12-6.7-18-14.67-13.86-3.7,1.85-4.16,3.81-3.35,3.93a6,6,0,0,1,4.27,2.54,6.54,6.54,0,0,1-1.73,9.13,6.64,6.64,0,0,1-9.13-1.74,6.82,6.82,0,0,1-.35-6.93c1.16-2,2.66-5.08,9-8.43a23,23,0,0,1,11.21-2.32c15.14,0,19.3,9.48,19.3,23.11V515.1s-.12,8.09,5.54,8.09C674.13,523.19,676.56,523.19,677.25,521.22ZM654,501.7c-11.32,2.54-15.14,8-15.14,13.86,0,0,0,7.63,7.51,7.63,3.93,0,6.59-3.12,7.63-5.9Z"/><path class="cls-2" d="M706.94,527.23v2H683v-2c4.5-1.39,4.62-6.12,4.62-12.13V489.45c0-3.93-1-5.66-5.78-8.09v-2l20.34-4.63V515.1C702.21,521.57,702.78,526.07,706.94,527.23Zm18.26-50.38a8.64,8.64,0,0,1-11.32,13.06,7.69,7.69,0,0,1-2.66-5.66c0-.93-2.54-.93-5.43,1.73l-1.16-1.62c5-6.58,8.78-8,11.21-9A10.33,10.33,0,0,1,725.2,476.85Z"/><path class="cls-2" d="M761.94,530.23h-2.2l-21.84-48c-1.84-4.5-5.54-4.5-7.28-4.5v-2h27.27v2c-6,0-3,7.05-3,7.05l13.4,28.65Zm-6.7,12.14c-1.85,4.85-4.51,5.43-5,4a7.31,7.31,0,0,0-3.93-4.74,8,8,0,0,0-10.63,4.05,8.14,8.14,0,0,0,4,10.63,9.3,9.3,0,0,0,8.9-1.16c2.2-1.73,5.66-5,8.67-12.82Zm34.89-66.56v2c-2.43,0-7.74.23-15.14,18l-1.38-1.61c1.5-3.82,5.2-16.53-6.13-16.41v-2Z"/></g></g></svg>